<svg id="Capa_1" enable-background="new 0 0 512 512" height="512" viewBox="0 0 512 512" width="512" xmlns="http://www.w3.org/2000/svg"><g><path d="m395.656 211.107c-18.196-26.586-38.761-47.829-61.122-63.135-4.007-2.743-8.043-5.246-12.101-7.561l42.372-118.695-35.213-15.656c-18.17-8.08-39.014-8.08-57.184 0-10.428 4.637-22.389 4.637-32.816 0-18.17-8.08-39.014-8.08-57.184 0l-35.214 15.658 42.372 118.695c-4.057 2.314-8.094 4.818-12.1 7.561-22.361 15.306-42.926 36.548-61.122 63.135-34.137 49.879-55.344 113.422-55.344 165.829 0 51.64 20.389 88.828 60.599 110.531 31.006 16.736 73.714 24.531 134.401 24.531s103.395-7.795 134.401-24.531c40.21-21.703 60.599-58.891 60.599-110.531 0-52.407-21.207-115.95-55.344-165.831zm-210.85-173.269 9.786-4.352c10.428-4.637 22.389-4.637 32.816 0 18.17 8.08 39.014 8.08 57.184 0 10.43-4.637 22.391-4.635 32.816 0l9.786 4.352-32.231 90.292c-12.85-4.187-25.866-6.309-38.963-6.309s-26.113 2.122-38.963 6.309zm71.194 444.148c-117.196 0-165-30.435-165-105.048 0-46.677 19.196-103.721 50.098-148.873 15.862-23.178 34.296-42.307 53.309-55.32 20.27-13.875 40.993-20.91 61.594-20.91s41.324 7.036 61.594 20.91c19.013 13.014 37.446 32.143 53.309 55.32 30.9 45.151 50.096 102.196 50.096 148.873 0 74.613-47.804 105.048-165 105.048z"/><path d="m298.378 308.115c-3.412-2.996-7.538-5.589-12.351-7.78-4.827-2.206-10.22-4.218-16.209-6.052-1.341-.358-2.622-.76-3.844-1.192-1.222-.417-2.369-.76-3.471-.999v-16.485c3.412.611 6.794 1.49 10.161 2.653 3.352 1.163 6.376 2.415 9.058 3.756 3.173 1.461 6.108 3.056 8.79 4.755l15.375-29.482c-2.563-1.222-5.378-2.534-8.417-3.935-3.054-1.401-6.317-2.758-9.803-4.039-3.471-1.282-7.106-2.4-10.891-3.384-3.784-.969-7.687-1.714-11.71-2.191v-18.69h-14.645v18.497c-5.736.611-11.144 2.027-16.209 4.218s-9.49 5.127-13.274 8.794-6.764 8.034-8.969 13.087c-2.19 5.068-3.292 10.91-3.292 17.499 0 4.755.641 8.973 1.922 12.639 1.281 3.667 3.263 6.931 5.959 9.793 2.682 2.877 6.093 5.44 10.25 7.691 4.142 2.266 9.088 4.367 14.824 6.32 3.784 1.342 7.568 2.504 11.352 3.488v16.112c-4.395-.611-8.7-1.669-12.902-3.205-4.216-1.52-7.911-3.085-11.084-4.665-3.784-1.833-7.315-3.786-10.622-5.873l-15.376 31.329c6.6 3.905 14.034 7.14 22.332 9.703 8.298 2.564 16.671 4.218 25.088 4.948v22.521h14.645v-22.164c5.617-.358 11.04-1.371 16.284-3.011 5.259-1.654 9.922-4.099 14.019-7.333 4.082-3.234 7.375-7.393 9.877-12.46 2.503-5.053 3.754-11.194 3.754-18.393 0-6.111-.909-11.298-2.741-15.576s-4.454-7.898-7.88-10.894zm-45.395-19.138c-2.443-.984-4.276-2.042-5.497-3.205-1.222-1.163-1.832-2.653-1.832-4.487 0-3.547 2.443-5.619 7.33-6.23v13.922zm15.747 52.928c-1.222.984-3.307 1.595-6.227 1.833v-13.548c2.443.969 4.395 2.102 5.855 3.383 1.46 1.282 2.19 2.772 2.19 4.487 0 1.594-.611 2.876-1.818 3.845z"/></g></svg>